<mxfile host="app.diagrams.net" modified="2023-09-04T16:16:58.066Z" agent="Mozilla/5.0 (Windows NT 10.0; Win64; x64) AppleWebKit/537.36 (KHTML, like Gecko) Chrome/116.0.0.0 Safari/537.36" version="21.7.2" etag="Ru52aKsChA7cJ43hfrVi" type="github">
  <diagram name="Page-1" id="DLEcpf7ySr1LYi16kx4O">
    <mxGraphModel>
      <root>
        <mxCell id="0" />
        <mxCell id="1" parent="0" />
      </root>
    </mxGraphModel>
  </diagram>
</mxfile>
